<svg width="326" height="159" viewBox="0 0 326 159" xmlns="http://www.w3.org/2000/svg"><title>Imported Layers</title><g fill="#5F5F5F" fill-rule="evenodd"><path d="M163.197.7c42.063 0 84.127.13 126.19-.06 18.375-.082 33.353 13.695 35.89 31.276.633 4.375.526 8.875.533 13.32.046 25.398.116 50.798-.017 76.195-.07 13.22-5.54 23.85-16.455 31.46-5.873 4.09-12.5 5.89-19.656 5.88-31.42-.02-62.842-.01-94.26-.01-52.665 0-105.33-.19-157.993.09-20.04.11-35.35-15.45-36.83-33.89-.11-1.26-.19-2.53-.19-3.8C.4 93.51.33 65.868.432 38.22.493 24.843 5.98 14.1 17.063 6.457 22.914 2.42 29.51.68 36.626.685c32.353.03 64.705.012 97.06.01 9.836 0 19.673 0 29.51.002zm-.204 153.27c42.11 0 84.218.024 126.327-.05 3.06-.005 6.227-.33 9.153-1.17 12.95-3.713 22.437-16.19 22.494-29.803.12-28.793.053-57.588.008-86.382-.002-1.93-.327-3.885-.71-5.786-2.815-13.88-15.12-25.47-31.517-25.39-53.303.25-106.608.09-159.913.09-30.66 0-61.32.02-91.98-.02-5.1-.008-9.986.85-14.447 3.35C10.993 15.2 5.315 25.14 5.252 38.09c-.134 27.65-.052 55.298-.03 82.948.003 1.943.097 3.91.4 5.826 2.413 15.368 15.344 27.342 32.06 27.214 41.77-.323 83.54-.107 125.31-.11z"/><path d="M27.71 56.608c8.455-25.203 11.147-24.825 37.452-28.94 6.405-1.003 12.66-1.177 18.845-.994 10.18.3 20.173 1.57 30.33 1.7 25.09.328 34.218 10.19 34.438 34.788.212 23.88.045 47.76.045 71.64l-5.594.397c-.468-6.36-1.264-12.71-1.338-19.06-.207-17.2.055-34.4-.173-51.59-.296-22.52-7.292-29.02-33.99-28.56l7.132 104.3c-20.803-33.353-8.237-69.9-14.284-103.953H79.596c-6.35 33.977 5.445 69.8-12.854 105.58 1.8-37.513 3.407-71.077 5.007-104.416-25.28-3.433-33.03 2.67-33.31 25-.31 24.017-.07 48.036-.07 72.055l-5.38.53c-.61-5.657-1.43-11.3-1.797-16.966-1.25-19.32-2.344-38.64-3.496-57.96V56.6"/><path d="M84 21.888h8.667v7.722l-6.968.127-1.7 2.937V21.888m213.36 3.632c0 16.157 2.68 33.004-1.22 48.16-1.74 6.77-16.7 10.14-25.67 15.055-1.14-1.232-2.29-2.463-3.437-3.692-.464 4.98-.924 9.965-1.515 16.35 11.252.718 21.44 1.366 31.624 2.017.07 1.465.135 2.93.2 4.4h-57.68c-2.08 18.558-1.27 19.35 14.453 19.758 14.74.38 30.686-4.862 44.714 9.265-19.77-.887-37.7-.706-55.28-3.104-4.945-.68-12.477-8.79-12.66-13.72-1.153-31.35-.586-62.75-.586-94.13l4.832-.32v75.89h23.724V22.2c1.77-.105 3.548-.208 5.32-.312v53.695c26.013 3.67 26.636 3.145 26.674-18.754.015-9.49.09-18.99.307-28.47.02-.94 1.19-1.86 1.827-2.79l4.36-.06m-92.49 19.553c4.79-19.93-11.296-17.677-27.02-17.61 21.373-12.67 34.185-6.41 34.4 13.46.273 25.49.39 50.996-.06 76.48-.32 17.97-11.888 25.357-35.48 18.9 28.1-1.236 30.26-16.682 28.82-35.49-1.074-14.087-.21-28.326-.21-42.87-13.15-4.136-18.468-.287-18.07 12.656.463 15.12.11 30.27.11 45.405l-7.45.01c1.022-20.114 1.002-40.38 3.926-60.215.595-4.05 12.233-6.47 21.025-10.725"/></g></svg>