<svg class="logo" width="159" height="327" viewBox="0 0 159 327" xmlns="http://www.w3.org/2000/svg"><title>Taisaku</title><g fill="#FFF" fill-rule="evenodd"><path d="M.58 163.38C.583 121.32.713 79.255.523 37.193.44 18.816 14.217 3.838 31.797 1.3c4.375-.63 8.876-.526 13.32-.533 25.398-.044 50.798-.115 76.196.02 13.217.068 23.847 5.537 31.455 16.453 4.09 5.874 5.883 12.5 5.88 19.657-.022 31.42-.008 62.84-.01 94.26 0 52.664-.186 105.33.092 157.992.105 20.03-15.457 35.34-33.887 36.822-1.267.102-2.538.183-3.808.183-27.646.01-55.293.083-82.94-.024-13.37-.052-24.113-5.537-31.756-16.62C2.3 303.66.56 297.066.56 289.95c.03-32.352.012-64.705.012-97.06v-29.51zm153.27.205c0-42.11.025-84.218-.05-126.328-.004-3.058-.33-6.225-1.17-9.152-3.712-12.95-16.188-22.437-29.802-22.495-28.793-.12-57.587-.052-86.38-.008-1.93.003-3.887.327-5.788.713C16.785 9.128 5.196 21.433 5.274 37.83c.252 53.303.092 106.61.09 159.914 0 30.66.02 61.32-.012 91.98-.005 5.1.853 9.985 3.35 14.446 6.386 11.415 16.32 17.093 29.27 17.156 27.648.134 55.298.052 82.947.03 1.94-.003 3.91-.097 5.82-.4 15.37-2.413 27.34-15.344 27.213-32.06-.323-41.77-.107-83.54-.11-125.31z"/><path d="M17.71 64.72c8.455-25.202 11.147-24.825 37.452-28.94 6.405-1.003 12.66-1.177 18.845-.994 10.182.3 20.173 1.57 30.33 1.7 25.09.328 34.218 10.19 34.438 34.788.212 23.88.045 47.76.045 71.64l-5.594.397c-.468-6.35-1.264-12.7-1.338-19.052-.207-17.194.055-34.392-.173-51.582-.296-22.515-7.292-29.017-33.99-28.557l7.132 104.305c-20.803-33.36-8.237-69.91-14.284-103.965H69.596c-6.35 33.98 5.445 69.803-12.854 105.583 1.8-37.514 3.407-71.077 5.007-104.417-25.28-3.437-33.03 2.666-33.31 24.996-.31 24.017-.07 48.037-.07 72.056-1.79.174-3.58.35-5.378.53-.61-5.657-1.426-11.3-1.793-16.965-1.25-19.314-2.344-38.638-3.496-57.96V64.72"/><path d="M74 30h8.667v7.722l-6.968.128-1.7 2.936V30m64.362 139.52c0 16.157 2.68 33.004-1.22 48.16-1.742 6.77-16.7 10.14-25.666 15.055-1.142-1.232-2.29-2.463-3.436-3.692-.463 4.98-.923 9.965-1.514 16.35 11.252.718 21.44 1.366 31.624 2.017.07 1.465.136 2.93.203 4.4h-57.68c-2.082 18.558-1.27 19.35 14.45 19.758 14.74.38 30.69-4.862 44.716 9.265-19.77-.887-37.7-.706-55.28-3.104-4.945-.68-12.477-8.79-12.66-13.72-1.153-31.343-.586-62.747-.586-94.13l4.833-.317v75.892H99.87V166.2c1.77-.105 3.548-.208 5.32-.312v53.695c26.013 3.67 26.636 3.145 26.674-18.754.016-9.49.092-18.988.308-28.47.02-.94 1.186-1.86 1.824-2.787 1.453-.022 2.905-.04 4.36-.06m-92.49 19.557c4.79-19.93-11.295-17.676-27.02-17.608 21.374-12.67 34.186-6.41 34.4 13.46.274 25.49.39 50.995-.06 76.48-.318 17.97-11.887 25.356-35.478 18.9 28.1-1.237 30.26-16.683 28.82-35.49-1.075-14.088-.212-28.327-.212-42.87-13.15-4.137-18.467-.288-18.07 12.655.464 15.12.11 30.268.11 45.405l-7.45.01c1.023-20.114 1.003-40.38 3.927-60.215.596-4.05 12.234-6.47 21.026-10.727"/></g></svg>