<svg class="logo" width="159" height="327" viewBox="0 0 159 327" xmlns="http://www.w3.org/2000/svg"><title>Taisaku</title><g fill="#FFF" fill-rule="evenodd"><path d="M.58 163.38C.583 121.32.713 79.255.523 37.193.44 18.816 14.217 3.838 31.797 1.3c4.375-.63 8.876-.526 13.32-.533 25.398-.044 50.798-.115 76.196.02 13.217.068 23.847 5.537 31.455 16.453 4.09 5.874 5.883 12.5 5.88 19.657-.022 31.42-.008 62.84-.01 94.26 0 52.664-.186 105.33.092 157.992.105 20.03-15.457 35.34-33.887 36.82-1.267.1-2.538.18-3.808.18-27.646.01-55.293.08-82.94-.03-13.37-.054-24.113-5.54-31.756-16.62C2.3 303.66.56 297.06.56 289.95c.03-32.352.012-64.705.012-97.06v-29.51zm153.27.205c0-42.11.025-84.218-.05-126.328-.004-3.058-.33-6.225-1.17-9.152-3.712-12.95-16.188-22.437-29.802-22.495-28.793-.12-57.587-.052-86.38-.008-1.93.003-3.887.327-5.788.713C16.785 9.128 5.196 21.433 5.274 37.83c.252 53.303.092 106.61.09 159.914 0 30.66.02 61.32-.012 91.98-.005 5.1.853 9.985 3.35 14.446 6.386 11.415 16.32 17.093 29.27 17.156 27.648.134 55.298.052 82.947.03 1.94-.003 3.91-.097 5.82-.4 15.37-2.413 27.34-15.344 27.21-32.06-.33-41.77-.11-83.54-.11-125.31z"/><path d="M17.71 64.72c8.455-25.202 11.147-24.825 37.452-28.94 6.405-1.003 12.66-1.177 18.845-.994 10.182.3 20.173 1.57 30.33 1.7 25.09.328 34.218 10.19 34.438 34.788.212 23.88.045 47.76.045 71.64l-5.594.397c-.468-6.35-1.264-12.7-1.338-19.05-.207-17.19.055-34.39-.173-51.58-.296-22.51-7.292-29.01-33.99-28.55l7.132 104.307C84.054 115.07 96.62 78.52 90.573 44.467H69.596c-6.35 33.98 5.445 69.8-12.854 105.58 1.8-37.513 3.407-71.076 5.007-104.416-25.28-3.43-33.03 2.67-33.31 25-.31 24.02-.07 48.04-.07 72.06-1.79.173-3.58.35-5.38.53-.61-5.66-1.43-11.3-1.8-16.966-1.25-19.313-2.346-38.637-3.498-57.96v-3.57"/><path d="M74 30h8.667v7.722l-6.968.128-1.7 2.936V30m64.36 139.52c0 16.157 2.68 33.004-1.22 48.16-1.74 6.77-16.7 10.14-25.67 15.055-1.14-1.232-2.29-2.463-3.44-3.692-.466 4.98-.926 9.965-1.517 16.35 11.252.718 21.44 1.366 31.624 2.017.07 1.465.135 2.93.202 4.4H80.67c-2.083 18.558-1.27 19.35 14.45 19.758 14.74.38 30.69-4.862 44.715 9.265-19.77-.887-37.7-.706-55.28-3.104-4.945-.68-12.477-8.79-12.66-13.72-1.153-31.35-.586-62.75-.586-94.13l4.83-.32v75.89h23.73V166.2c1.77-.105 3.54-.208 5.32-.312v53.695c26.01 3.67 26.63 3.145 26.67-18.754.01-9.49.09-18.99.31-28.47.02-.94 1.18-1.86 1.82-2.79l4.36-.06m-92.49 19.55c4.79-19.93-11.297-17.68-27.02-17.61 21.372-12.67 34.184-6.41 34.4 13.46.272 25.49.39 50.994-.06 76.48-.32 17.97-11.89 25.355-35.48 18.9 28.1-1.238 30.26-16.68 28.82-35.49-1.075-14.09-.21-28.328-.21-42.87-13.15-4.138-18.468-.29-18.07 12.654.463 15.12.11 30.27.11 45.405l-7.45.01c1.022-20.114 1.002-40.38 3.926-60.215.596-4.05 12.234-6.47 21.026-10.725"/></g></svg>