<svg width="326" height="159" viewBox="0 0 326 159" xmlns="http://www.w3.org/2000/svg"><title>Imported Layers</title><g fill="#5F5F5F" fill-rule="evenodd"><path d="M163.197.7c42.063 0 84.127.13 126.19-.06 18.375-.082 33.353 13.695 35.89 31.276.633 4.375.526 8.875.533 13.32.046 25.398.116 50.798-.017 76.195-.07 13.22-5.54 23.85-16.455 31.46-5.873 4.09-12.5 5.884-19.656 5.88-31.42-.02-62.842-.01-94.26-.01-52.665 0-105.33-.19-157.993.09-20.04.106-35.35-15.455-36.83-33.89-.106-1.262-.187-2.534-.187-3.803-.01-27.648-.08-55.295.025-82.94C.494 24.844 5.98 14.1 17.063 6.457 22.913 2.42 29.51.68 36.626.686c32.353.03 64.705.012 97.06.01 9.836 0 19.673 0 29.51.002zm-.204 153.27c42.11 0 84.218.024 126.327-.05 3.06-.005 6.227-.33 9.153-1.17 12.95-3.713 22.437-16.19 22.494-29.803.12-28.793.053-57.588.008-86.382-.002-1.93-.327-3.885-.71-5.786-2.815-13.88-15.12-25.47-31.517-25.39-53.303.25-106.608.09-159.913.09-30.66 0-61.32.02-91.98-.015-5.1-.005-9.986.854-14.447 3.35C10.993 15.205 5.315 25.14 5.252 38.09c-.134 27.65-.052 55.298-.03 82.948.003 1.943.097 3.91.4 5.826 2.413 15.368 15.344 27.342 32.06 27.214 41.77-.323 83.54-.107 125.31-.11z"/><path d="M27.71 56.608c8.455-25.203 11.147-24.825 37.452-28.94 6.405-1.003 12.66-1.177 18.845-.994 10.18.3 20.173 1.57 30.33 1.7 25.09.328 34.218 10.19 34.438 34.788.212 23.88.045 47.76.045 71.64l-5.594.397c-.468-6.36-1.264-12.71-1.338-19.06-.207-17.2.055-34.397-.173-51.587-.296-22.516-7.292-29.018-33.99-28.558l7.132 104.304c-20.803-33.354-8.237-69.9-14.284-103.954H79.596c-6.35 33.977 5.445 69.8-12.854 105.58 1.8-37.513 3.407-71.077 5.007-104.416-25.28-3.434-33.028 2.67-33.31 25-.31 24.016-.07 48.035-.07 72.054-1.79.175-3.58.352-5.376.53-.61-5.656-1.426-11.298-1.793-16.965-1.25-19.318-2.343-38.64-3.495-57.96v-3.566"/><path d="M84 21.888h8.667v7.722l-6.968.127L84 32.674 84 21.888m213.362 3.632c0 16.157 2.68 33.004-1.22 48.16-1.742 6.77-16.7 10.14-25.666 15.055-1.142-1.232-2.29-2.463-3.436-3.692-.463 4.98-.923 9.965-1.514 16.35 11.252.718 21.44 1.366 31.624 2.017.07 1.465.136 2.93.202 4.4h-57.68c-2.08 18.558-1.27 19.35 14.452 19.758 14.74.38 30.687-4.862 44.715 9.265-19.77-.887-37.7-.706-55.278-3.104-4.946-.68-12.478-8.79-12.66-13.72-1.154-31.342-.587-62.746-.587-94.13l4.833-.316v75.892h23.724V22.2c1.77-.105 3.547-.208 5.318-.312v53.695c26.014 3.67 26.637 3.145 26.675-18.754.016-9.49.092-18.987.308-28.47.02-.94 1.186-1.86 1.824-2.786 1.453-.022 2.905-.04 4.36-.06M204.865 45.07c4.79-19.93-11.294-17.676-27.02-17.608 21.375-12.67 34.187-6.41 34.4 13.46.275 25.49.39 50.995-.06 76.48-.317 17.97-11.886 25.356-35.477 18.9 28.1-1.237 30.26-16.683 28.82-35.49-1.075-14.088-.212-28.327-.212-42.87-13.15-4.137-18.467-.288-18.07 12.655.464 15.12.11 30.268.11 45.405l-7.45.01c1.023-20.114 1.003-40.38 3.927-60.215.596-4.05 12.234-6.47 21.026-10.727"/></g></svg>